<?xml version="1.0" standalone="no"?>
<!DOCTYPE svg PUBLIC "-//W3C//DTD SVG 20010904//EN"
 "http://www.w3.org/TR/2001/REC-SVG-20010904/DTD/svg10.dtd">
<svg version="1.0" xmlns="http://www.w3.org/2000/svg"
 width="512.000000pt" height="512.000000pt" viewBox="0 0 512.000000 512.000000"
 preserveAspectRatio="xMidYMid meet">
<metadata>
Created by potrace 1.14, written by Peter Selinger 2001-2017
</metadata>
<g transform="translate(0.000000,512.000000) scale(0.100000,-0.100000)"
fill="#000000" stroke="none">
<path d="M1109 4816 c-3 -3 -101 -14 -194 -21 -16 -1 -65 -6 -107 -10 -42 -4
-89 -8 -105 -10 -103 -10 -152 -19 -147 -27 4 -6 -2 -6 -13 1 -39 20 -121 -62
-98 -99 3 -4 1 -10 -5 -12 -5 -1 -11 -19 -12 -38 -2 -19 -6 -37 -10 -40 -3 -3
-8 -18 -11 -35 -3 -16 -12 -57 -20 -90 -15 -57 -20 -78 -32 -142 -3 -16 -8
-34 -10 -40 -2 -7 1 -13 8 -13 9 0 9 -2 0 -8 -7 -4 -15 -32 -18 -62 -4 -30 -9
-66 -11 -80 -15 -88 -19 -174 -18 -400 0 -257 4 -360 15 -360 3 0 5 -18 4 -41
-1 -22 3 -43 7 -45 5 -3 6 -8 4 -12 -2 -4 2 -41 10 -82 12 -71 16 -87 30 -142
11 -48 12 -53 13 -66 1 -7 5 -11 10 -8 4 3 6 -6 3 -21 -4 -19 -2 -24 8 -18 9
5 11 4 6 -4 -7 -10 3 -53 21 -101 4 -8 7 -17 8 -20 1 -3 6 -21 12 -40 31 -105
222 -510 244 -518 5 -2 9 -8 9 -13 0 -9 78 -140 89 -149 3 -3 12 -17 20 -33 8
-15 18 -27 23 -27 4 0 8 -6 8 -12 0 -7 9 -24 20 -38 11 -14 55 -70 97 -125 43
-55 87 -110 98 -122 11 -12 26 -29 33 -38 7 -8 18 -12 24 -9 7 4 8 2 4 -4 -6
-10 13 -35 70 -94 9 -10 21 -15 27 -11 6 3 7 1 4 -4 -9 -15 40 -66 55 -57 6 4
8 3 4 -4 -7 -11 78 -99 193 -201 35 -31 72 -63 81 -72 10 -9 66 -54 126 -99
60 -46 116 -90 124 -99 14 -16 162 -115 232 -156 113 -66 137 -81 177 -101 25
-13 49 -20 55 -17 6 3 7 2 3 -2 -9 -10 65 -49 193 -101 47 -20 92 -39 101 -44
14 -7 144 -46 187 -55 9 -2 48 -13 86 -24 38 -11 73 -18 77 -15 5 3 9 0 9 -5
0 -6 11 -11 24 -11 14 0 27 -4 31 -9 3 -6 13 -10 23 -9 9 0 26 -2 37 -5 74
-20 178 -38 191 -33 8 3 14 1 14 -5 0 -6 19 -10 43 -9 23 1 44 1 47 0 20 -7
87 -16 175 -25 33 -4 71 -8 85 -10 14 -2 50 -6 80 -10 30 -3 61 -8 68 -10 6
-2 12 1 12 8 0 9 2 9 8 0 4 -6 32 -14 62 -17 89 -10 642 -17 675 -8 30 8 61
53 70 104 3 12 11 55 20 93 8 39 16 89 18 111 1 23 5 40 10 37 4 -2 7 11 8 29
0 18 2 42 5 53 10 48 24 154 29 235 2 30 4 55 5 55 1 0 3 15 5 33 2 19 6 36 9
39 3 3 1 14 -5 24 -5 11 -6 19 -2 19 4 0 8 18 9 40 1 24 -3 37 -9 33 -6 -4 -7
-1 -1 8 13 21 14 80 0 72 -8 -5 -8 -3 1 8 10 12 9 76 -1 86 -2 3 0 17 4 33 4
16 5 31 2 35 -4 4 -8 21 -8 38 -2 38 -12 147 -19 197 -2 19 -7 56 -11 83 -4
32 -10 45 -17 40 -8 -4 -8 -2 0 9 7 8 11 17 8 20 -2 2 -7 22 -10 44 -4 21 -8
47 -11 56 -3 9 -7 25 -9 35 -2 10 -8 38 -15 63 -6 25 -12 50 -13 55 -13 50
-93 281 -100 286 -5 3 -8 10 -7 15 3 14 -23 105 -32 110 -4 3 -8 12 -8 20 0
49 -157 347 -287 546 l-64 98 17 70 c27 113 9 225 -44 273 -46 42 -149 60
-244 42 -25 -5 -39 -2 -49 8 -8 8 -40 42 -73 76 -32 33 -63 58 -69 54 -6 -3
-7 -1 -3 5 8 13 -88 115 -98 104 -4 -4 -6 -2 -4 4 3 11 -88 104 -172 174 -29
25 -65 55 -79 67 -34 30 -40 34 -81 63 -19 13 -44 33 -55 43 -31 28 -194 137
-205 137 -5 0 -10 4 -10 9 0 5 -12 15 -27 22 -71 35 -188 104 -191 111 -2 4
-11 8 -21 8 -9 0 -32 11 -51 25 -18 13 -37 22 -41 19 -5 -3 -9 0 -9 5 0 6 -3
10 -7 9 -5 -1 -43 15 -86 35 -42 20 -80 37 -85 37 -4 1 -25 9 -47 20 -22 11
-48 19 -57 20 -9 0 -19 4 -22 9 -3 4 -20 12 -38 16 -48 11 -47 11 -117 34 -35
11 -67 19 -69 16 -3 -3 -11 0 -18 6 -7 5 -25 12 -41 15 -15 3 -54 11 -87 19
-32 9 -79 18 -104 21 -25 3 -48 7 -51 9 -5 3 -51 9 -151 21 -19 3 -53 7 -75
10 -51 6 -400 16 -406 10z m-218 -653 c13 -16 12 -17 -3 -4 -17 13 -22 21 -14
21 2 0 10 -8 17 -17z m799 13 c0 -2 -8 -10 -17 -17 -16 -13 -17 -12 -4 4 13
16 21 21 21 13z m-390 -90 c0 -2 -8 -10 -17 -17 -16 -13 -17 -12 -4 4 13 16
21 21 21 13z m865 -3246 c3 -5 1 -10 -4 -10 -6 0 -11 5 -11 10 0 6 2 10 4 10
3 0 8 -4 11 -10z"/>
</g>
</svg>
